<mxfile host="app.diagrams.net" modified="2024-07-25T03:45:27.791Z" agent="Mozilla/5.0 (Macintosh; Intel Mac OS X 10_15_7) AppleWebKit/537.36 (KHTML, like Gecko) Chrome/126.0.0.0 Safari/537.36" version="24.2.7" etag="sbxmlI-DdKSxctA6yat8" type="github">
  <diagram name="Page-1" id="az0KtX5uE5HqfDMFLkdj">
    <mxGraphModel>
      <root>
        <mxCell id="0" />
        <mxCell id="1" parent="0" />
      </root>
    </mxGraphModel>
  </diagram>
</mxfile>
